HIERARCHY
ROOT Hips
{
	OFFSET 0.000000 0.000000 0.000000
	CHANNELS 6 Xposition Yposition Zposition Zrotation Yrotation Xrotation 
	JOINT LHipJoint
	{
		OFFSET 0.000000 0.000000 0.000000
		CHANNELS 3 Zrotation Yrotation Xrotation
		JOINT LeftUpLeg
		{
			OFFSET 1.363060 -1.794630 0.839290
			CHANNELS 3 Zrotation Yrotation Xrotation
			JOINT LeftLeg
			{
				OFFSET 2.448110 -6.726130 0.000000
				CHANNELS 3 Zrotation Yrotation Xrotation
				JOINT LeftFoot
				{
					OFFSET 2.562200 -7.039590 0.000000
					CHANNELS 3 Zrotation Yrotation Xrotation
					JOINT LeftToeBase
					{
						OFFSET 0.157640 -0.433110 2.322550
						CHANNELS 3 Zrotation Yrotation Xrotation
						End Site
						{
							OFFSET 0.000000 0.000000 0.000000
						}
					}
				}
			}
		}
	}
	JOINT RHipJoint
	{
		OFFSET 0.000000 0.000000 0.000000
		CHANNELS 3 Zrotation Yrotation Xrotation
		JOINT RightUpLeg
		{
			OFFSET -1.305520 -1.794630 0.839290
			CHANNELS 3 Zrotation Yrotation Xrotation
			JOINT RightLeg
			{
				OFFSET -2.542530 -6.985550 0.000000
				CHANNELS 3 Zrotation Yrotation Xrotation
				JOINT RightFoot
				{
					OFFSET -2.568260 -7.056230 0.000000
					CHANNELS 3 Zrotation Yrotation Xrotation
					JOINT RightToeBase
					{
						OFFSET -0.164730 -0.452590 2.363150
						CHANNELS 3 Zrotation Yrotation Xrotation
						End Site
						{
							OFFSET 0.000000 0.000000 0.000000
						}
					}
				}
			}
		}
	}
	JOINT LowerBack
	{
		OFFSET 0.000000 0.000000 0.000000
		CHANNELS 3 Zrotation Yrotation Xrotation
		JOINT Spine
		{
			OFFSET 0.028270 2.035590 -0.193380
			CHANNELS 3 Zrotation Yrotation Xrotation
			JOINT Spine1
			{
				OFFSET 0.056720 2.048850 -0.042750
				CHANNELS 3 Zrotation Yrotation Xrotation
				JOINT Neck
				{
					OFFSET 0.000000 0.000000 0.000000
					CHANNELS 3 Zrotation Yrotation Xrotation
					JOINT Neck1
					{
						OFFSET -0.054170 1.746240 0.172020
						CHANNELS 3 Zrotation Yrotation Xrotation
						JOINT Head
						{
							OFFSET 0.104070 1.761360 -0.123970
							CHANNELS 3 Zrotation Yrotation Xrotation
							End Site
							{
								OFFSET 0.000000 0.000000 0.000000
							}
						}
					}
				}
				JOINT LeftShoulder
				{
					OFFSET 0.000000 0.000000 0.000000
					CHANNELS 3 Zrotation Yrotation Xrotation
					JOINT LeftArm
					{
						OFFSET 3.362410 1.200890 -0.311210
						CHANNELS 3 Zrotation Yrotation Xrotation
						JOINT LeftForeArm
						{
							OFFSET 4.983000 -0.000000 -0.000000
							CHANNELS 3 Zrotation Yrotation Xrotation
							JOINT LeftHand
							{
								OFFSET 3.483560 -0.000000 -0.000000
								CHANNELS 3 Zrotation Yrotation Xrotation
								JOINT LeftFingerBase
								{
									OFFSET 0.000000 0.000000 0.000000
									CHANNELS 3 Zrotation Yrotation Xrotation
									JOINT LeftHandIndex1
									{
										OFFSET 0.715260 -0.000000 -0.000000
										CHANNELS 3 Zrotation Yrotation Xrotation
										End Site
										{
											OFFSET 0.000000 0.000000 0.000000
										}
									}
								}
								JOINT LThumb
								{
									OFFSET 0.000000 0.000000 0.000000
									CHANNELS 3 Zrotation Yrotation Xrotation
									End Site
									{
										OFFSET 0.000000 0.000000 0.000000
									}
								}
							}
						}
					}
				}
				JOINT RightShoulder
				{
					OFFSET 0.000000 0.000000 0.000000
					CHANNELS 3 Zrotation Yrotation Xrotation
					JOINT RightArm
					{
						OFFSET -3.136600 1.374050 -0.404650
						CHANNELS 3 Zrotation Yrotation Xrotation
						JOINT RightForeArm
						{
							OFFSET -5.241900 -0.000000 -0.000000
							CHANNELS 3 Zrotation Yrotation Xrotation
							JOINT RightHand
							{
								OFFSET -3.444170 -0.000000 -0.000000
								CHANNELS 3 Zrotation Yrotation Xrotation
								JOINT RightFingerBase
								{
									OFFSET 0.000000 0.000000 0.000000
									CHANNELS 3 Zrotation Yrotation Xrotation
									JOINT RightHandIndex1
									{
										OFFSET -0.622530 -0.000000 -0.000000
										CHANNELS 3 Zrotation Yrotation Xrotation
										End Site
										{
											OFFSET 0.000000 0.000000 0.000000
										}
									}
								}
								JOINT RThumb
								{
									OFFSET 0.000000 0.000000 0.000000
									CHANNELS 3 Zrotation Yrotation Xrotation
									End Site
									{
										OFFSET 0.000000 0.000000 0.000000
									}
								}
							}
						}
					}
				}
			}
		}
	}
}
MOTION
Frames: 7
Frame Time: 0.008333
-3.364122 16.817179 -2.063933 8.219361 72.299144 17.609419 -9.500699 -0.408937 3.278404 -0.987010 -8.482041 -31.255677 -1.607656 0.269058 19.300996 0.013599 -0.775494 1.962767 0.091000 0.000000 -34.484800 10.838494 -2.715812 -0.919959 1.801685 -2.130417 -3.642063 1.775754 -2.636769 33.954244 0.682518 8.549035 -8.363307 -0.157500 0.000000 -62.492400 -7.034105 2.414345 -3.230473 -1.822514 2.751488 -3.829377 -4.329506 2.590216 -0.935328 4.950734 -2.022898 -7.021551 -1.392807 -0.121937 0.193674 0.000000 0.000000 0.000000 -13.645199 20.276544 3.323571 -79.715152 34.339985 6.225821 -3.473156 -9.470330 -0.005481 -1.805728 9.073975 -0.146133 0.000090 -0.142828 -0.000000 0.000000 0.000000 0.000000 0.000000 0.000000 0.000000 0.633814 4.726800 -2.598713 41.700450 53.046294 7.726497 0.025750 76.079419 -0.070703 -5.064965 10.397264 -0.482741 -0.081412 -0.644472 -0.000000 0.000000 0.000000 0.000000 0.000000 0.000000 0.000000 
-3.237722 16.782340 -2.069267 9.301825 71.592915 18.478380 -9.456464 -0.344847 3.011307 -2.173847 -7.303039 -31.638212 -1.656164 0.372040 21.134587 0.035040 -0.703617 1.361278 0.096000 0.000000 -34.914500 11.124542 -2.735331 -0.907456 0.731002 -2.525264 -5.096554 1.495729 -2.914076 37.157665 0.689407 8.663002 -7.400425 -0.060200 0.000000 -65.816799 -7.510470 2.309849 -3.098223 -1.930646 2.683563 -3.841730 -4.387124 2.528025 -1.031018 5.167742 -1.832528 -6.905238 -1.453025 -0.127849 0.220895 0.000000 0.000000 0.000000 -13.426942 19.701859 3.354363 -79.665821 33.846471 7.550296 -3.430066 -10.162326 -0.004627 -1.698499 8.697388 -0.132022 0.002906 -0.137721 -0.000000 0.000000 0.000000 0.000000 0.000000 0.000000 0.000000 1.053728 4.981518 -2.445880 43.393790 52.559268 8.872124 0.067996 76.094940 -0.069174 -5.069422 10.475089 -0.487233 -0.073768 -0.643706 -0.000000 0.000000 0.000000 0.000000 0.000000 0.000000 0.000000 
-3.116224 16.743762 -2.074111 10.337756 70.888759 19.274896 -9.401869 -0.282941 2.723847 -3.343066 -6.145857 -32.034676 -1.703761 0.484111 23.075870 0.060491 -0.626164 0.587009 0.098600 0.000000 -35.257600 11.414190 -2.734470 -0.909563 -0.327394 -2.922234 -6.610969 1.184402 -3.189599 40.464280 0.679002 8.706268 -6.188934 0.083000 0.000001 -68.800400 -7.985604 2.195369 -2.912661 -2.038056 2.607239 -3.848045 -4.443640 2.458556 -1.150168 5.364896 -1.631906 -6.777010 -1.516998 -0.134130 0.250301 0.000000 0.000000 0.000000 -13.182834 19.019284 3.394301 -79.604143 33.336582 8.861219 -3.391732 -10.957553 -0.003863 -1.588460 8.221721 -0.116912 0.005422 -0.132192 -0.000000 0.000000 0.000000 0.000000 0.000000 0.000000 0.000000 1.470346 5.250002 -2.284471 45.151091 52.015718 10.055440 0.105643 76.018332 -0.067313 -5.054212 10.546328 -0.489424 -0.066016 -0.642131 -0.000000 0.000000 0.000000 0.000000 0.000000 0.000000 0.000000 
-3.000028 16.701424 -2.078713 11.313607 70.190452 19.989141 -9.337396 -0.224192 2.422661 -4.467715 -5.054268 -32.417158 -1.748855 0.603071 25.085283 0.089769 -0.545339 -0.348351 0.097300 0.000000 -35.528600 11.703149 -2.708259 -0.928633 -1.355858 -3.305549 -8.167031 0.845107 -3.460022 43.845698 0.644275 8.648550 -4.747576 0.271199 -0.000000 -71.242600 -8.450957 2.072551 -2.673004 -2.143357 2.523208 -3.848012 -4.500425 2.382241 -1.294060 5.539571 -1.425057 -6.636803 -1.585247 -0.140820 0.281871 0.000000 0.000000 0.000000 -12.921687 18.226523 3.441073 -79.509158 32.819979 10.215449 -3.356263 -11.867715 -0.003197 -1.480893 7.658923 -0.101801 0.007755 -0.126392 -0.000000 0.000000 0.000000 0.000000 0.000000 0.000000 0.000000 1.886124 5.527455 -2.115796 46.954017 51.419384 11.264245 0.138638 75.838483 -0.065181 -5.022540 10.613795 -0.489815 -0.058269 -0.639729 -0.000000 0.000000 0.000000 0.000000 0.000000 0.000000 0.000000 
-2.889384 16.655469 -2.083452 12.215454 69.498874 20.609935 -9.264607 -0.169427 2.112412 -5.528994 -4.055214 -32.758083 -1.790510 0.726325 27.120334 0.122574 -0.463617 -1.424167 0.090901 -0.000000 -35.752499 11.987044 -2.652332 -0.966204 -2.338511 -3.658743 -9.745566 0.483977 -3.722608 47.274338 0.579185 8.456791 -3.122072 0.493600 0.000000 -72.912801 -8.897057 1.943210 -2.378346 -2.244922 2.432204 -3.840882 -4.558679 2.299549 -1.461683 5.689410 -1.215971 -6.485934 -1.658269 -0.147936 0.315194 0.000000 0.000000 0.000000 -12.652719 17.333726 3.492040 -79.353289 32.293162 11.681879 -3.320343 -12.892468 -0.002615 -1.373283 7.024281 -0.086892 0.010022 -0.120435 -0.000000 0.000000 0.000000 0.000000 0.000000 0.000000 0.000000 2.303659 5.809369 -1.942056 48.786486 50.777694 12.489489 0.167208 75.543215 -0.062870 -4.979890 10.681295 -0.489010 -0.050624 -0.636496 -0.000000 0.000000 0.000000 0.000000 0.000000 0.000000 0.000000 
-2.784428 16.606261 -2.088670 13.033177 68.812496 21.128402 -9.185540 -0.119122 1.796101 -6.517355 -3.160987 -33.032777 -1.828400 0.851050 29.138581 0.158785 -0.380662 -2.612618 0.078601 -0.000000 -35.955600 12.262087 -2.563978 -1.022939 -3.263305 -3.968624 -11.328881 0.109375 -3.975744 50.723349 0.479934 8.097140 -1.381988 0.727901 0.000000 -73.624300 -9.314291 1.810657 -2.028492 -2.341167 2.336347 -3.827664 -4.620492 2.212189 -1.657760 5.810547 -0.999618 -6.319277 -1.736655 -0.155597 0.351737 0.000000 0.000000 0.000000 -12.401517 16.325609 3.543792 -79.109748 31.779393 13.261497 -3.283011 -14.041940 -0.002101 -1.255615 6.339468 -0.071983 0.012237 -0.114449 -0.000000 0.000000 0.000000 0.000000 0.000000 0.000000 0.000000 2.722160 6.098905 -1.763593 50.639624 50.082172 13.718854 0.192371 75.124831 -0.060428 -4.927395 10.751750 -0.487211 -0.043215 -0.632405 -0.000000 0.000000 0.000000 0.000000 0.000000 0.000000 0.000000 
-2.685013 16.554262 -2.094698 13.763759 68.127219 21.542966 -9.101711 -0.073004 1.475794 -7.432491 -2.373015 -33.223478 -1.862734 0.974629 31.101788 0.198898 -0.290120 -3.883022 0.060300 -0.000000 -36.158800 12.525892 -2.442120 -1.098836 -4.124558 -4.228549 -12.904990 -0.269423 -4.219326 54.169968 0.346055 7.539521 0.380342 0.940999 -0.000000 -73.206500 -9.698301 1.675908 -1.624988 -2.431328 2.235803 -3.806521 -4.686141 2.120120 -1.873259 5.903839 -0.783568 -6.143438 -1.820991 -0.163745 0.389564 0.000000 0.000000 0.000000 -12.164938 15.245152 3.594989 -78.747139 31.233829 15.030518 -3.239920 -15.269921 -0.001628 -1.114063 5.627067 -0.056974 0.014428 -0.108448 0.000000 0.000000 0.000000 0.000000 0.000000 0.000000 0.000000 3.148502 6.388650 -1.584462 52.496639 49.350486 14.949816 0.214850 74.568688 -0.057994 -4.877140 10.828168 -0.485922 -0.036048 -0.627449 -0.000000 0.000000 0.000000 0.000000 0.000000 0.000000 0.000000 
